<?xml version="1.0" encoding="UTF-8"?>
<svg id="Layer_2" data-name="Layer 2" xmlns="http://www.w3.org/2000/svg" viewBox="0 0 24.96 29.17">
  <defs>
    <style>
      .cls-1 {
        fill: #fff;
      }

      .cls-2 {
        fill: #13231b;
      }
    </style>
  </defs>
  <g id="_2" data-name="2">
    <g>
      <g>
        <path class="cls-2" d="m16.03,29.17h8.93l-.04-5.4v-11.77h-10.67v5.4h1.77v11.77Z"/>
        <path class="cls-1" d="m24.42,12.5v11.27l.03,4.89h-7.93v-11.77h-1.77v-4.4h9.67m.5-.5h-10.67v5.4h1.77v11.77h8.93l-.04-5.4v-11.77h0Z"/>
      </g>
      <g>
        <circle class="cls-2" cx="19.87" cy="5.09" r="5.09"/>
        <path class="cls-1" d="m19.87.5c2.53,0,4.59,2.06,4.59,4.59s-2.06,4.59-4.59,4.59-4.59-2.06-4.59-4.59S17.33.5,19.87.5M19.87,0C17.05,0,14.77,2.28,14.77,5.09s2.28,5.09,5.09,5.09,5.09-2.28,5.09-5.09S22.68,0,19.87,0h0Z"/>
      </g>
      <g>
        <path class="cls-1" d="m.04,12v11.77L0,29.17h8.93v-11.77h1.77v-5.4H.04Z"/>
        <path class="cls-1" d="m10.21,12.5v4.4h-1.77v11.77H.5l.03-4.9v-11.27h9.67m.5-.5H.04v11.77l-.04,5.4h8.93v-11.77h1.77v-5.4h0Z"/>
      </g>
      <g>
        <circle class="cls-1" cx="5.09" cy="5.09" r="5.09"/>
        <path class="cls-1" d="m5.09.5c2.53,0,4.59,2.06,4.59,4.59s-2.06,4.59-4.59,4.59S.5,7.62.5,5.09,2.56.5,5.09.5M5.09,0C2.28,0,0,2.28,0,5.09s2.28,5.09,5.09,5.09,5.09-2.28,5.09-5.09S7.91,0,5.09,0h0Z"/>
      </g>
    </g>
  </g>
</svg>