<?xml version="1.0" encoding="UTF-8"?>
<svg id="Layer_2" data-name="Layer 2" xmlns="http://www.w3.org/2000/svg" viewBox="0 0 85.66 23.5">
  <defs>
    <style>
      .cls-1 {
        fill: #fff;
      }
    </style>
  </defs>
  <g id="_2" data-name="2">
    <g>
      <g>
        <path class="cls-1" d="m7.88,17.04H.02v-3.15h1.24v-3.72H0v-3.15h6.47v1.37c.5-.42,1.15-.79,1.95-1.1.8-.31,1.56-.47,2.29-.47,1.7,0,2.84.66,3.42,1.96,1.54-1.31,3.1-1.96,4.7-1.96.87,0,1.6.19,2.16.56.58.38.99.88,1.22,1.51.24.65.36,1.56.36,2.73v2.26h1.32v3.15h-6.52v-4.31c0-1.12-.09-1.82-.26-2.1-.17-.28-.48-.41-.93-.41-.57,0-1.13.21-1.71.64v3.03h1.42v3.15h-6.62v-4.29c0-1.1-.08-1.8-.23-2.1-.15-.29-.46-.43-.92-.43-.53,0-1.09.21-1.67.64v3.03h1.41v3.15Z"/>
        <path class="cls-1" d="m32.51,13.87l4.29.53c-.19.45-.46.85-.81,1.2s-.76.66-1.26.92c-1,.54-2.19.81-3.59.81-2.34,0-4.09-.49-5.27-1.46-1.18-.96-1.77-2.23-1.77-3.79s.58-2.8,1.75-3.82c1.15-1.02,2.71-1.53,4.68-1.53s3.44.48,4.63,1.45c1.17.96,1.8,2.41,1.87,4.37h-7.9c.02,1.63.63,2.44,1.82,2.44.72,0,1.23-.37,1.55-1.12Zm-3.31-2.63h2.93c.01-.21.02-.32.02-.35,0-.54-.14-1-.41-1.35-.28-.35-.64-.53-1.1-.53s-.83.19-1.08.58c-.25.39-.37.88-.37,1.45,0,.08,0,.14.01.21Z"/>
        <path class="cls-1" d="m45.78,17.04h-8.08v-3.15h1.36v-3.72h-1.36v-3.15h6.22v2.51c.23-.63.6-1.17,1.09-1.62.47-.45.94-.74,1.43-.88.46-.13,1.14-.2,2.04-.2v4.41c-.12,0-.26-.01-.43-.01-1.06,0-1.85.11-2.37.32-.54.22-.9.51-1.1.87-.2.37-.3.86-.31,1.47h1.52v3.15Z"/>
        <path class="cls-1" d="m53.14,9.82l-4.07-.41c.45-.99,1.17-1.68,2.17-2.08.99-.4,2.44-.6,4.36-.6.71,0,1.35.02,1.91.07.56.04,1.06.11,1.5.2.92.17,1.6.44,2.04.8.44.36.75.76.92,1.18.18.43.27,1.11.27,2.03v2.89h1.28v3.15h-6.48v-.68c-.9.58-2.09.87-3.6.87-1.41,0-2.48-.31-3.19-.93-.72-.62-1.09-1.35-1.09-2.2,0-.94.44-1.71,1.33-2.3.88-.6,2.03-.9,3.45-.9,1.3,0,2.33.17,3.09.51v-.3c0-.62-.04-1.05-.13-1.3-.1-.26-.31-.49-.64-.67-.34-.18-.74-.27-1.2-.27-.83,0-1.47.32-1.92.96Zm3.9,4.66v-1.83c-.46-.25-.95-.37-1.47-.37-.45,0-.82.12-1.09.37-.27.25-.4.58-.4.97s.14.74.41.99c.28.26.61.39.97.39.65,0,1.17-.18,1.57-.53Z"/>
        <path class="cls-1" d="m70.62,17.04h-6.48v-3.15h1.28V5.82h-1.3v-3.15h6.5v10.02l3.27-3.19h-1.83v-2.47h6.41v2.72h-1.17l-1.88,1.84,2.26,2.32h.82v3.15h-3.73l-4.15-4.36v4.36Z"/>
        <g>
          <path class="cls-1" d="m80.44,13.89v-4.16h-1.03v-2.72h6.23v6.87l.02,3.15h-5.22v-3.15Z"/>
          <circle class="cls-1" cx="82.68" cy="2.98" r="2.98"/>
        </g>
      </g>
      <g>
        <path class="cls-1" d="m49.23,20.33c.11-.2.25-.35.44-.46.19-.11.4-.16.64-.16.31,0,.57.08.78.23.2.16.34.37.4.64h-.35c-.04-.18-.14-.33-.28-.43-.15-.1-.33-.16-.54-.16-.17,0-.33.04-.46.12-.14.08-.25.19-.33.35s-.12.34-.12.57.04.41.12.57c.08.16.19.27.33.35.14.08.29.12.46.12.22,0,.4-.05.54-.16.15-.1.24-.25.28-.44h.35c-.06.26-.19.47-.4.63s-.46.24-.78.24c-.24,0-.45-.05-.64-.16-.19-.11-.33-.26-.44-.46-.11-.2-.16-.43-.16-.69s.05-.5.16-.69Z"/>
        <path class="cls-1" d="m52.1,20.33c.1-.2.25-.35.44-.46.19-.11.4-.16.63-.16s.45.06.63.17c.18.11.3.26.38.43v-.56h.33v2.55h-.33v-.57c-.08.17-.21.32-.39.43-.18.11-.39.17-.63.17s-.44-.05-.62-.16c-.19-.11-.33-.26-.44-.46-.1-.2-.16-.43-.16-.69s.05-.49.16-.69Zm1.95.15c-.08-.16-.2-.28-.34-.36s-.3-.13-.48-.13-.34.04-.49.12c-.14.08-.26.2-.34.35-.08.15-.12.34-.12.55s.04.39.12.55c.08.16.2.28.34.36.14.08.31.12.49.12s.33-.04.48-.13.26-.2.34-.36c.08-.16.13-.34.13-.54s-.04-.39-.13-.54Z"/>
        <path class="cls-1" d="m55.96,19.88c.18-.11.39-.17.63-.17.23,0,.44.05.62.16.19.11.33.26.44.46.1.2.16.43.16.69s-.05.49-.16.69c-.1.2-.25.35-.44.46-.19.11-.39.16-.62.16s-.45-.06-.63-.17c-.18-.11-.31-.26-.39-.43v1.77h-.32v-3.76h.32v.56c.08-.17.21-.31.39-.43Zm1.39.59c-.08-.15-.2-.27-.34-.35-.14-.08-.31-.12-.49-.12s-.33.04-.48.13-.26.2-.34.36c-.08.16-.13.34-.13.54s.04.39.13.54c.08.16.2.28.34.36s.3.13.48.13.34-.04.49-.12c.14-.08.26-.2.34-.36.08-.16.12-.34.12-.55s-.04-.4-.12-.55Z"/>
        <path class="cls-1" d="m58.4,19.19s-.07-.1-.07-.17.02-.13.07-.17c.05-.05.1-.07.17-.07s.12.02.17.07c.05.05.07.1.07.17s-.02.13-.07.17-.1.07-.17.07-.12-.02-.17-.07Zm.33.55v2.55h-.33v-2.55h.33Z"/>
        <path class="cls-1" d="m59.9,20.02v1.59c0,.16.03.26.09.32.06.06.16.09.31.09h.3v.28h-.35c-.23,0-.4-.05-.51-.16-.11-.11-.17-.28-.17-.53v-1.59h-.36v-.28h.36v-.64h.33v.64h.7v.28h-.7Z"/>
        <path class="cls-1" d="m61.15,20.33c.1-.2.25-.35.44-.46.19-.11.4-.16.63-.16s.45.06.63.17c.18.11.3.26.38.43v-.56h.33v2.55h-.33v-.57c-.08.17-.21.32-.39.43-.18.11-.39.17-.63.17s-.44-.05-.62-.16c-.19-.11-.33-.26-.44-.46-.1-.2-.16-.43-.16-.69s.05-.49.16-.69Zm1.95.15c-.08-.16-.2-.28-.34-.36s-.3-.13-.48-.13-.34.04-.49.12c-.14.08-.26.2-.34.35-.08.15-.12.34-.12.55s.04.39.12.55c.08.16.2.28.34.36.14.08.31.12.49.12s.33-.04.48-.13.26-.2.34-.36c.08-.16.13-.34.13-.54s-.04-.39-.13-.54Z"/>
        <path class="cls-1" d="m64.63,18.84v3.46h-.33v-3.46h.33Z"/>
        <path class="cls-1" d="m67.36,19.88c.18-.11.39-.17.63-.17.23,0,.44.05.62.16.19.11.33.26.44.46.1.2.16.43.16.69s-.05.49-.16.69c-.1.2-.25.35-.44.46-.19.11-.39.16-.62.16s-.45-.06-.63-.17c-.18-.11-.31-.26-.39-.43v1.77h-.32v-3.76h.32v.56c.08-.17.21-.31.39-.43Zm1.39.59c-.08-.15-.2-.27-.34-.35-.14-.08-.31-.12-.49-.12s-.33.04-.48.13-.26.2-.34.36c-.08.16-.13.34-.13.54s.04.39.13.54c.08.16.2.28.34.36s.3.13.48.13.34-.04.49-.12c.14-.08.26-.2.34-.36.08-.16.12-.34.12-.55s-.04-.4-.12-.55Z"/>
        <path class="cls-1" d="m69.82,20.33c.1-.2.25-.35.44-.46.19-.11.4-.16.63-.16s.45.06.63.17c.18.11.3.26.38.43v-.56h.33v2.55h-.33v-.57c-.08.17-.21.32-.39.43-.18.11-.39.17-.63.17s-.44-.05-.62-.16c-.19-.11-.33-.26-.44-.46-.1-.2-.16-.43-.16-.69s.05-.49.16-.69Zm1.95.15c-.08-.16-.2-.28-.34-.36s-.3-.13-.48-.13-.34.04-.49.12c-.14.08-.26.2-.34.35-.08.15-.12.34-.12.55s.04.39.12.55c.08.16.2.28.34.36.14.08.31.12.49.12s.33-.04.48-.13.26-.2.34-.36c.08-.16.13-.34.13-.54s-.04-.39-.13-.54Z"/>
        <path class="cls-1" d="m73.62,19.83c.15-.09.33-.13.55-.13v.34h-.09c-.24,0-.43.06-.57.19-.14.13-.22.34-.22.64v1.43h-.33v-2.55h.33v.45c.07-.16.18-.28.33-.37Z"/>
        <path class="cls-1" d="m75.09,20.02v1.59c0,.16.03.26.09.32.06.06.16.09.31.09h.3v.28h-.35c-.23,0-.4-.05-.51-.16-.11-.11-.17-.28-.17-.53v-1.59h-.36v-.28h.36v-.64h.33v.64h.7v.28h-.7Z"/>
        <path class="cls-1" d="m78.27,19.98c.19.19.29.46.29.82v1.5h-.32v-1.46c0-.28-.07-.49-.21-.64-.14-.15-.33-.22-.57-.22s-.44.08-.59.23c-.15.16-.22.39-.22.69v1.39h-.33v-2.55h.33v.44c.08-.16.2-.28.35-.36.15-.08.33-.12.52-.12.31,0,.56.09.75.28Z"/>
        <path class="cls-1" d="m81.59,21.15h-2.12c0,.19.06.36.14.5.08.14.19.24.33.31.14.07.29.11.45.11.21,0,.39-.05.54-.15s.24-.24.29-.42h.35c-.06.25-.2.45-.4.61-.2.16-.46.24-.77.24-.24,0-.46-.05-.65-.16-.19-.11-.34-.26-.45-.46-.11-.2-.16-.43-.16-.69s.05-.5.16-.7c.11-.2.25-.35.44-.46.19-.11.41-.16.65-.16s.46.05.64.16c.18.11.32.25.42.43.1.18.15.38.15.6,0,.11,0,.2,0,.26Zm-.44-.75c-.08-.13-.19-.24-.33-.3-.14-.07-.29-.1-.45-.1-.24,0-.45.08-.62.23-.17.16-.27.38-.29.66h1.8c0-.19-.04-.35-.11-.49Z"/>
        <path class="cls-1" d="m82.85,19.83c.15-.09.33-.13.55-.13v.34h-.09c-.24,0-.43.06-.57.19-.14.13-.22.34-.22.64v1.43h-.33v-2.55h.33v.45c.07-.16.18-.28.33-.37Z"/>
        <path class="cls-1" d="m84.05,22.13c-.19-.14-.29-.32-.31-.55h.34c.02.14.08.26.2.35.12.09.28.13.48.13.18,0,.32-.04.42-.13.1-.08.15-.19.15-.31,0-.09-.03-.16-.08-.22-.06-.06-.13-.1-.21-.13-.09-.03-.2-.07-.35-.11-.19-.05-.34-.1-.46-.15-.12-.05-.22-.12-.3-.22-.08-.1-.12-.23-.12-.4,0-.12.04-.24.11-.35.07-.11.18-.19.32-.25.14-.06.29-.09.47-.09.27,0,.5.07.66.21.17.14.26.33.27.57h-.33c0-.15-.07-.27-.18-.36-.11-.09-.25-.14-.44-.14-.17,0-.3.04-.4.12-.1.08-.15.17-.15.29,0,.1.03.18.09.25.06.06.14.11.23.15.09.04.21.08.36.12.18.05.33.1.44.15.11.05.2.12.28.21.08.09.12.21.12.36,0,.14-.04.26-.11.37-.07.11-.18.19-.31.25-.13.06-.29.09-.46.09-.29,0-.53-.07-.72-.2Z"/>
      </g>
    </g>
  </g>
</svg>