<?xml version="1.0" encoding="UTF-8"?>
<svg id="Layer_2" data-name="Layer 2" xmlns="http://www.w3.org/2000/svg" viewBox="0 0 85.8 23.18">
  <defs>
    <style>
      .cls-1 {
        fill: #fff;
      }
    </style>
  </defs>
  <g id="_2" data-name="2">
    <g>
      <path class="cls-1" d="m18.72,6.6c.86,0,1.56.18,2.12.55.57.37.97.86,1.2,1.48.24.64.35,1.53.35,2.67v2.22h1.3v3.09h-6.39v-4.22c0-1.1-.08-1.79-.25-2.06-.17-.27-.47-.41-.91-.41-.55,0-1.11.21-1.67.63v2.97h1.39v3.09h-6.48v-4.2c0-1.08-.07-1.77-.22-2.06-.15-.28-.45-.43-.9-.43-.52,0-1.07.21-1.64.63v2.97h1.38v3.09H.27v-3.09h1.22v-3.65H.25v-3.09h6.34v1.35c.49-.41,1.12-.77,1.91-1.07.78-.3,1.53-.46,2.25-.46,1.67,0,2.79.64,3.35,1.92,1.51-1.28,3.04-1.92,4.61-1.92m0-.25c-1.53,0-3.05.6-4.52,1.78-.64-1.18-1.8-1.78-3.44-1.78-.74,0-1.53.16-2.34.47-.61.23-1.14.5-1.57.8v-1.09H0v3.59h1.24v3.15H.02v3.59h8.2v-3.59h-1.38v-2.59c.49-.34.96-.51,1.39-.51.53,0,.64.22.68.29.07.14.19.58.19,1.94v4.45h6.98v-3.59h-1.39v-2.59c.48-.34.96-.51,1.42-.51.35,0,.58.09.7.29.08.13.22.55.22,1.92v4.47h6.89v-3.59h-1.3v-1.97c0-1.17-.12-2.1-.37-2.76-.25-.66-.68-1.2-1.29-1.6-.59-.39-1.35-.59-2.25-.59h0Z"/>
      <path class="cls-1" d="m30.56,6.42c1.82,0,3.3.46,4.45,1.39,1.13.92,1.73,2.32,1.8,4.2h-7.59c.02,1.56.6,2.34,1.75,2.34.69,0,1.19-.36,1.49-1.07l4.12.51c-.19.43-.44.82-.78,1.16s-.73.64-1.21.89c-.96.52-2.11.77-3.45.77-2.25,0-3.93-.47-5.07-1.4-1.13-.93-1.7-2.14-1.7-3.65s.56-2.7,1.68-3.68c1.11-.98,2.61-1.47,4.5-1.47m-1.28,4.34h2.81c.01-.2.02-.31.02-.34,0-.52-.13-.96-.4-1.3-.27-.34-.62-.51-1.05-.51s-.79.19-1.03.56c-.24.38-.36.84-.36,1.39,0,.07,0,.14.01.2m1.28-4.59c-1.95,0-3.52.52-4.67,1.53-1.17,1.02-1.76,2.32-1.76,3.86s.6,2.87,1.79,3.84c1.17.97,2.93,1.46,5.22,1.46,1.37,0,2.57-.27,3.57-.8.49-.26.92-.58,1.27-.93.35-.36.63-.78.83-1.23l.13-.31-.33-.04-4.12-.51-.19-.02-.07.17c-.26.62-.68.92-1.26.92s-1.4-.2-1.49-1.84h7.59v-.26c-.09-1.95-.72-3.42-1.9-4.39-1.19-.96-2.74-1.45-4.61-1.45h0Zm-1.04,4.34c0-.48.11-.88.32-1.21.19-.3.45-.44.82-.44s.64.13.86.41c.23.3.34.68.34,1.15,0,.01,0,.04,0,.09h-2.34Z"/>
      <path class="cls-1" d="m48.22,6.88v4.2c-.11,0-.25,0-.41,0-1.01,0-1.76.1-2.25.31-.51.21-.86.49-1.04.83-.19.35-.29.82-.3,1.4h1.45v3h-7.7v-3h1.3v-3.54h-1.3v-3h5.93v2.39c.22-.6.57-1.11,1.03-1.55.45-.43.9-.71,1.36-.84.44-.12,1.09-.19,1.94-.19m.25-.25h-.25c-.87,0-1.55.07-2.01.2-.5.14-.99.44-1.46.9-.23.21-.44.45-.61.71v-1.62h-6.43v3.5h1.3v3.04h-1.3v3.5h8.2v-3.5h-1.44c.03-.42.11-.76.26-1.03.15-.29.46-.53.92-.71.46-.19,1.19-.29,2.16-.29.16,0,.29,0,.4,0h.26s0-.25,0-.25v-4.45h0Z"/>
      <path class="cls-1" d="m55.71,6.57c.68,0,1.29.02,1.82.06.54.04,1.02.11,1.44.19.88.16,1.53.42,1.95.76.42.35.71.73.88,1.13.17.42.26,1.06.26,1.94v2.77h1.23v3.02h-6.2v-.65c-.86.55-2,.83-3.44.83-1.35,0-2.37-.3-3.05-.89-.69-.59-1.04-1.29-1.04-2.11,0-.9.43-1.63,1.28-2.2.84-.57,1.94-.86,3.3-.86,1.24,0,2.22.16,2.96.48v-.29c0-.59-.04-1.01-.13-1.25-.09-.25-.3-.46-.61-.64-.33-.17-.71-.26-1.15-.26-.8,0-1.41.31-1.84.92l-3.9-.4c.43-.94,1.12-1.6,2.08-1.99.94-.38,2.33-.57,4.17-.57m-.13,7.92c.62,0,1.12-.17,1.5-.5v-1.75c-.44-.24-.91-.36-1.4-.36-.44,0-.78.12-1.04.36-.26.24-.39.55-.39.93s.13.7.4.95c.27.25.58.38.93.38m.13-8.17c-1.86,0-3.3.2-4.27.59-1.01.41-1.76,1.12-2.21,2.12l-.14.32.35.04,3.9.4h.15s.08-.11.08-.11c.38-.55.92-.81,1.63-.81.39,0,.74.08,1.03.23.25.14.42.31.49.51.05.14.11.44.11,1.08-.72-.24-1.62-.37-2.71-.37-1.4,0-2.56.3-3.44.9-.92.62-1.38,1.43-1.38,2.41,0,.88.38,1.66,1.13,2.3.73.63,1.81.95,3.22.95,1.28,0,2.35-.22,3.19-.65v.47h6.7v-3.52h-1.23v-2.52c0-.92-.09-1.58-.28-2.03-.18-.44-.5-.85-.95-1.22-.46-.37-1.15-.64-2.06-.81-.43-.09-.92-.15-1.46-.2-.54-.04-1.16-.06-1.84-.06h0Zm-.13,7.92c-.29,0-.53-.1-.76-.31-.21-.2-.32-.45-.32-.77s.1-.55.31-.75c.21-.19.49-.29.87-.29.4,0,.79.09,1.15.26v1.48c-.33.25-.74.37-1.25.37h0Z"/>
      <path class="cls-1" d="m70.65,2.73v13.88h-6.26v-3.04h1.24v-7.79h-1.26v-3.04h6.28m7.57,4.2v2.62h-1.13l-1.82,1.78,2.19,2.24h.79v3.04h-3.6l-4-4.21,3.15-3.08h-1.77v-2.38h6.19m-7.32-4.45h-6.78v3.54h1.26v7.29h-1.24v3.54h6.76v-3.84l3.57,3.76.07.08h3.96v-3.54h-.93l-1.94-1.98,1.56-1.53h1.28v-3.12h-6.69v2.88h1.4l-2.29,2.24V2.48h0Z"/>
      <g>
        <path class="cls-1" d="m85.68,16.74h-5.26v-7.02h-.99v-2.86h6.23v6.72l.02,3.15Zm-5.01-.25h4.76l-.02-2.9v-6.48h-5.73v2.36h.99v7.02Z"/>
        <path class="cls-1" d="m82.7.25c1.58,0,2.86,1.28,2.86,2.86s-1.28,2.86-2.86,2.86-2.86-1.28-2.86-2.86,1.28-2.86,2.86-2.86m0-.25c-1.71,0-3.11,1.39-3.11,3.11s1.39,3.11,3.11,3.11,3.11-1.39,3.11-3.11-1.39-3.11-3.11-3.11h0Z"/>
      </g>
      <g>
        <path class="cls-1" d="m49.24,20c.11-.2.25-.35.44-.46.19-.11.4-.16.64-.16.31,0,.57.08.78.23.2.16.34.37.4.64h-.35c-.04-.18-.14-.33-.28-.43-.15-.1-.33-.16-.54-.16-.17,0-.33.04-.46.12-.14.08-.25.19-.33.35s-.12.34-.12.57.04.41.12.57c.08.16.19.27.33.35.14.08.29.12.46.12.22,0,.4-.05.54-.16.15-.1.24-.25.28-.44h.35c-.06.26-.19.47-.4.63s-.46.24-.78.24c-.24,0-.45-.05-.64-.16-.19-.11-.33-.26-.44-.46-.11-.2-.16-.43-.16-.69s.05-.5.16-.69Z"/>
        <path class="cls-1" d="m52.11,20c.1-.2.25-.35.44-.46.19-.11.4-.16.63-.16s.45.06.63.17c.18.11.3.26.38.43v-.56h.33v2.55h-.33v-.57c-.08.17-.21.32-.39.43-.18.11-.39.17-.63.17s-.44-.05-.62-.16c-.19-.11-.33-.26-.44-.46-.1-.2-.16-.43-.16-.69s.05-.49.16-.69Zm1.95.15c-.08-.16-.2-.28-.34-.36s-.3-.13-.48-.13-.34.04-.49.12c-.14.08-.26.2-.34.35-.08.15-.12.34-.12.55s.04.39.12.55c.08.16.2.28.34.36.14.08.31.12.49.12s.33-.04.48-.13.26-.2.34-.36c.08-.16.13-.34.13-.54s-.04-.39-.13-.54Z"/>
        <path class="cls-1" d="m55.97,19.55c.18-.11.39-.17.63-.17.23,0,.44.05.62.16.19.11.33.26.44.46.1.2.16.43.16.69s-.05.49-.16.69c-.1.2-.25.35-.44.46-.19.11-.39.16-.62.16s-.45-.06-.63-.17c-.18-.11-.31-.26-.39-.43v1.77h-.32v-3.76h.32v.56c.08-.17.21-.31.39-.43Zm1.39.59c-.08-.15-.2-.27-.34-.35-.14-.08-.31-.12-.49-.12s-.33.04-.48.13-.26.2-.34.36c-.08.16-.13.34-.13.54s.04.39.13.54c.08.16.2.28.34.36s.3.13.48.13.34-.04.49-.12c.14-.08.26-.2.34-.36.08-.16.12-.34.12-.55s-.04-.4-.12-.55Z"/>
        <path class="cls-1" d="m58.41,18.86s-.07-.1-.07-.17.02-.13.07-.17c.05-.05.1-.07.17-.07s.12.02.17.07c.05.05.07.1.07.17s-.02.13-.07.17-.1.07-.17.07-.12-.02-.17-.07Zm.33.55v2.55h-.33v-2.55h.33Z"/>
        <path class="cls-1" d="m59.91,19.69v1.59c0,.16.03.26.09.32.06.06.16.09.31.09h.3v.28h-.35c-.23,0-.4-.05-.51-.16-.11-.11-.17-.28-.17-.53v-1.59h-.36v-.28h.36v-.64h.33v.64h.7v.28h-.7Z"/>
        <path class="cls-1" d="m61.16,20c.1-.2.25-.35.44-.46.19-.11.4-.16.63-.16s.45.06.63.17c.18.11.3.26.38.43v-.56h.33v2.55h-.33v-.57c-.08.17-.21.32-.39.43-.18.11-.39.17-.63.17s-.44-.05-.62-.16c-.19-.11-.33-.26-.44-.46-.1-.2-.16-.43-.16-.69s.05-.49.16-.69Zm1.95.15c-.08-.16-.2-.28-.34-.36s-.3-.13-.48-.13-.34.04-.49.12c-.14.08-.26.2-.34.35-.08.15-.12.34-.12.55s.04.39.12.55c.08.16.2.28.34.36.14.08.31.12.49.12s.33-.04.48-.13.26-.2.34-.36c.08-.16.13-.34.13-.54s-.04-.39-.13-.54Z"/>
        <path class="cls-1" d="m64.64,18.51v3.46h-.33v-3.46h.33Z"/>
        <path class="cls-1" d="m67.37,19.55c.18-.11.39-.17.63-.17.23,0,.44.05.62.16.19.11.33.26.44.46.1.2.16.43.16.69s-.05.49-.16.69c-.1.2-.25.35-.44.46-.19.11-.39.16-.62.16s-.45-.06-.63-.17c-.18-.11-.31-.26-.39-.43v1.77h-.32v-3.76h.32v.56c.08-.17.21-.31.39-.43Zm1.39.59c-.08-.15-.2-.27-.34-.35-.14-.08-.31-.12-.49-.12s-.33.04-.48.13-.26.2-.34.36c-.08.16-.13.34-.13.54s.04.39.13.54c.08.16.2.28.34.36s.3.13.48.13.34-.04.49-.12c.14-.08.26-.2.34-.36.08-.16.12-.34.12-.55s-.04-.4-.12-.55Z"/>
        <path class="cls-1" d="m69.83,20c.1-.2.25-.35.44-.46.19-.11.4-.16.63-.16s.45.06.63.17c.18.11.3.26.38.43v-.56h.33v2.55h-.33v-.57c-.08.17-.21.32-.39.43-.18.11-.39.17-.63.17s-.44-.05-.62-.16c-.19-.11-.33-.26-.44-.46-.1-.2-.16-.43-.16-.69s.05-.49.16-.69Zm1.95.15c-.08-.16-.2-.28-.34-.36s-.3-.13-.48-.13-.34.04-.49.12c-.14.08-.26.2-.34.35-.08.15-.12.34-.12.55s.04.39.12.55c.08.16.2.28.34.36.14.08.31.12.49.12s.33-.04.48-.13.26-.2.34-.36c.08-.16.13-.34.13-.54s-.04-.39-.13-.54Z"/>
        <path class="cls-1" d="m73.64,19.5c.15-.09.33-.13.55-.13v.34h-.09c-.24,0-.43.06-.57.19-.14.13-.22.34-.22.64v1.43h-.33v-2.55h.33v.45c.07-.16.18-.28.33-.37Z"/>
        <path class="cls-1" d="m75.1,19.69v1.59c0,.16.03.26.09.32.06.06.16.09.31.09h.3v.28h-.35c-.23,0-.4-.05-.51-.16-.11-.11-.17-.28-.17-.53v-1.59h-.36v-.28h.36v-.64h.33v.64h.7v.28h-.7Z"/>
        <path class="cls-1" d="m78.28,19.65c.19.19.29.46.29.82v1.5h-.32v-1.46c0-.28-.07-.49-.21-.64-.14-.15-.33-.22-.57-.22s-.44.08-.59.23c-.15.16-.22.39-.22.69v1.39h-.33v-2.55h.33v.44c.08-.16.2-.28.35-.36.15-.08.33-.12.52-.12.31,0,.56.09.75.28Z"/>
        <path class="cls-1" d="m81.6,20.82h-2.12c0,.19.06.36.14.5.08.14.19.24.33.31.14.07.29.11.45.11.21,0,.39-.05.54-.15s.24-.24.29-.42h.35c-.06.25-.2.45-.4.61-.2.16-.46.24-.77.24-.24,0-.46-.05-.65-.16-.19-.11-.34-.26-.45-.46-.11-.2-.16-.43-.16-.69s.05-.5.16-.7c.11-.2.25-.35.44-.46.19-.11.41-.16.65-.16s.46.05.64.16c.18.11.32.25.42.43.1.18.15.38.15.6,0,.11,0,.2,0,.26Zm-.44-.75c-.08-.13-.19-.24-.33-.3-.14-.07-.29-.1-.45-.1-.24,0-.45.08-.62.23-.17.16-.27.38-.29.66h1.8c0-.19-.04-.35-.11-.49Z"/>
        <path class="cls-1" d="m82.87,19.5c.15-.09.33-.13.55-.13v.34h-.09c-.24,0-.43.06-.57.19-.14.13-.22.34-.22.64v1.43h-.33v-2.55h.33v.45c.07-.16.18-.28.33-.37Z"/>
        <path class="cls-1" d="m84.06,21.8c-.19-.14-.29-.32-.31-.55h.34c.02.14.08.26.2.35.12.09.28.13.48.13.18,0,.32-.04.42-.13.1-.08.15-.19.15-.31,0-.09-.03-.16-.08-.22-.06-.06-.13-.1-.21-.13-.09-.03-.2-.07-.35-.11-.19-.05-.34-.1-.46-.15-.12-.05-.22-.12-.3-.22-.08-.1-.12-.23-.12-.4,0-.12.04-.24.11-.35.07-.11.18-.19.32-.25.14-.06.29-.09.47-.09.27,0,.5.07.66.21.17.14.26.33.27.57h-.33c0-.15-.07-.27-.18-.36-.11-.09-.25-.14-.44-.14-.17,0-.3.04-.4.12-.1.08-.15.17-.15.29,0,.1.03.18.09.25.06.06.14.11.23.15.09.04.21.08.36.12.18.05.33.1.44.15.11.05.2.12.28.21.08.09.12.21.12.36,0,.14-.04.26-.11.37-.07.11-.18.19-.31.25-.13.06-.29.09-.46.09-.29,0-.53-.07-.72-.2Z"/>
      </g>
    </g>
  </g>
</svg>